# xmcd
#
# Track frame offsets: 
#        150
#        12531
#        23795
#        35573
#        48354
#        61312
#        72731
#        84639
#        96375
#        109424
#        122282
#        136938
#        147677
#        160943
#        174689
#        188855
#        203174
#        215430
#        227913
#        240489
#
# Disc length: 3380 seconds
#
# Revision: 1
# Processed by: cddbd v1.5.2PL0 Copyright (c) Steve Scherf et al.
# Submitted via: ExactAudioCopyFreeDBPlugin 1.0
#
DISCID=2b0d3214
DTITLE=Bobby Bland, Charles Brown - ABC Of The Blues - Vol. 03 Bobby B
DTITLE=land, Charles Brown
DYEAR=2010
DGENRE=Blues
TTITLE0=Bobby "Blue" Bland - It's My Life, baby
TTITLE1=Bobby "Blue" Bland - Honey Bee
TTITLE2=Bobby "Blue" Bland - Lost Lover Blues
TTITLE3=Bobby "Blue" Bland - Time Out
TTITLE4=Bobby "Blue" Bland - Million Miles From Nowhere
TTITLE5=Bobby "Blue" Bland - You've Got Bad Intentions
TTITLE6=Bobby "Blue" Bland - I Don't Believe
TTITLE7=Bobby "Blue" Bland - You Did Me Wrong
TTITLE8=Bobby "Blue" Bland - Last Night
TTITLE9=Bobby "Blue" Bland - Wise Man's Blues
TTITLE10=Charles Brown - Driftin' Blues
TTITLE11=Charles Brown - Trouble Blues
TTITLE12=Charles Brown - In The Evening When The Sun Goes Down
TTITLE13=Charles Brown - Get Yourself Another Fool
TTITLE14=Charles Brown - Black Night
TTITLE15=Charles Brown - Hard Times
TTITLE16=Charles Brown - Cryin' Mercy
TTITLE17=Charles Brown - Evening Shadows
TTITLE18=Charles Brown - Fool's Paradise
TTITLE19=Charles Brown - Merry Christmas, Baby
EXTD=
EXTT0=
EXTT1=
EXTT2=
EXTT3=
EXTT4=
EXTT5=
EXTT6=
EXTT7=
EXTT8=
EXTT9=
EXTT10=
EXTT11=
EXTT12=
EXTT13=
EXTT14=
EXTT15=
EXTT16=
EXTT17=
EXTT18=
EXTT19=
PLAYORDER=
